<?xml version="1.0" standalone="no"?>
<!DOCTYPE svg PUBLIC "-//W3C//DTD SVG 20010904//EN"
 "http://www.w3.org/TR/2001/REC-SVG-20010904/DTD/svg10.dtd">
<svg version="1.0" xmlns="http://www.w3.org/2000/svg"
 width="1391.000000pt" height="1391.000000pt" viewBox="0 0 1391.000000 1391.000000"
 preserveAspectRatio="xMidYMid meet">
<metadata>
Created by potrace 1.14, written by Peter Selinger 2001-2017
</metadata>
<g transform="translate(0.000000,1391.000000) scale(0.100000,-0.100000)"
fill="#000000" stroke="none">
<path d="M3260 6960 l0 -1530 25 0 25 0 0 1530 0 1530 -25 0 -25 0 0 -1530z"/>
<path d="M1150 8169 c-33 -13 -38 -24 -45 -89 -6 -49 -13 -97 -19 -125 -11
-52 -51 -72 -161 -79 -38 -2 -83 -7 -100 -11 -61 -15 -98 -71 -94 -143 3 -64
-15 -112 -53 -143 -29 -22 -44 -25 -117 -28 -46 -1 -91 -7 -101 -14 -38 -23
-62 -84 -67 -170 -6 -106 -17 -142 -56 -171 -38 -29 -71 -36 -176 -41 -55 -3
-92 -10 -120 -25 l-41 -20 0 -162 c0 -159 0 -161 26 -184 14 -13 33 -24 42
-25 9 -1 31 -3 47 -4 17 -2 60 -6 98 -9 37 -3 73 -9 80 -13 12 -8 17 -9 37
-12 5 0 21 -19 35 -41 24 -39 29 -64 34 -191 1 -9 10 -26 21 -39 11 -13 20
-27 20 -31 0 -15 74 -29 148 -29 55 0 74 -4 78 -15 4 -8 11 -15 18 -15 22 0
44 -55 50 -126 3 -39 9 -79 13 -90 17 -46 61 -67 148 -70 105 -4 128 -11 164
-48 33 -34 46 -73 45 -136 -1 -19 2 -37 6 -40 4 -3 13 -18 21 -35 19 -41 71
-65 142 -65 78 0 174 29 182 55 4 11 9 27 12 35 9 29 9 115 1 156 -16 74 -58
94 -208 99 -96 3 -145 55 -141 150 2 70 -31 132 -83 156 -27 12 -46 15 -57 9
-9 -5 -19 -7 -21 -4 -3 2 -28 6 -55 9 -113 10 -152 66 -147 210 3 69 6 82 26
97 13 10 30 18 39 18 9 0 19 3 22 6 4 4 28 9 54 11 107 9 135 19 163 60 34 49
40 199 10 267 -14 33 -23 44 -35 40 -8 -4 -15 -1 -15 7 0 7 -3 9 -6 6 -4 -3
-16 -1 -28 5 -19 11 -37 14 -106 22 -87 9 -115 33 -138 112 -18 62 -15 105 13
160 41 81 99 109 248 119 46 3 69 23 97 83 16 33 21 59 18 94 -3 26 -1 48 4
48 5 0 7 4 4 9 -7 10 49 59 83 72 14 6 61 11 106 13 44 2 90 9 101 16 39 24
57 74 58 159 1 85 -12 123 -48 138 -29 13 -245 15 -276 2z"/>
<path d="M8300 8065 c-164 -45 -242 -193 -176 -329 33 -68 70 -97 217 -176
146 -79 190 -120 196 -187 5 -58 -19 -103 -69 -130 -71 -39 -262 -17 -341 39
l-28 20 3 -68 3 -69 55 -19 c83 -29 267 -29 333 1 77 35 108 63 133 117 67
144 -3 274 -201 373 -109 55 -173 100 -195 135 -41 67 -16 148 56 184 58 28
211 27 277 -3 l47 -22 0 60 c0 56 -2 60 -27 70 -48 19 -221 21 -283 4z"/>
<path d="M4000 8010 l0 -50 130 0 130 0 0 -410 0 -410 55 0 55 0 0 410 0 410
130 0 130 0 0 50 0 50 -315 0 -315 0 0 -50z"/>
<path d="M4840 7601 l0 -461 55 0 55 0 0 195 0 195 59 0 c116 0 140 -20 267
-232 l95 -158 65 0 64 0 -51 83 c-173 275 -194 306 -232 326 -25 13 -25 14 35
43 99 50 145 136 135 251 -8 86 -46 143 -122 182 -58 30 -61 30 -242 33 l-183
4 0 -461z m369 334 c68 -40 90 -130 50 -211 -33 -70 -74 -88 -201 -93 l-108
-3 0 167 0 167 113 -3 c89 -3 119 -8 146 -24z"/>
<path d="M5700 7600 l0 -460 55 0 55 0 0 460 0 460 -55 0 -55 0 0 -460z"/>
<path d="M6120 7600 l0 -460 55 0 55 0 0 393 c1 375 2 391 18 361 9 -18 123
-194 252 -393 l235 -361 68 0 67 0 0 460 0 460 -55 0 -55 0 2 -390 c2 -215 3
-390 2 -390 0 0 -113 175 -250 390 l-249 389 -72 1 -73 0 0 -460z"/>
<path d="M7162 7713 c3 -338 4 -350 27 -407 48 -119 157 -186 305 -186 133 0
234 46 293 133 55 82 63 146 63 496 l0 311 -55 0 -55 0 0 -310 c0 -336 -6
-387 -50 -448 -41 -57 -89 -77 -185 -77 -93 0 -144 23 -184 81 -45 66 -51 116
-51 446 l0 308 -56 0 -55 0 3 -347z"/>
<path d="M9157 8053 c-4 -6 -296 -755 -348 -891 -9 -23 -8 -23 52 -20 l61 3
18 45 c9 25 29 80 44 123 l28 77 202 0 201 0 45 -121 c25 -67 50 -123 56 -126
6 -2 34 -3 62 -1 l50 3 -177 455 -178 455 -56 3 c-30 2 -58 -1 -60 -5z m172
-437 c22 -60 41 -113 41 -117 0 -5 -72 -9 -161 -9 -88 0 -159 4 -157 9 2 4 38
105 82 224 l79 215 37 -106 c21 -59 56 -156 79 -216z"/>
<path d="M1575 7846 c-11 -6 -34 -26 -52 -45 -24 -26 -31 -44 -32 -75 -1 -55
-5 -77 -18 -101 -6 -11 -11 -24 -11 -30 0 -5 -10 -18 -23 -27 -18 -13 -52 -19
-129 -24 -124 -6 -153 -11 -145 -24 3 -6 2 -10 -3 -10 -20 0 -40 -95 -37 -175
3 -86 7 -110 18 -121 4 -4 7 -15 7 -25 0 -33 46 -50 147 -54 93 -4 163 -19
163 -35 0 -4 9 -10 19 -13 25 -6 44 -74 42 -145 -1 -34 3 -60 13 -74 9 -12 16
-28 16 -35 0 -7 9 -22 20 -33 16 -16 37 -21 102 -25 122 -7 161 -23 186 -78
14 -33 16 -156 2 -189 -23 -55 -35 -61 -125 -66 -92 -5 -175 4 -175 18 0 5
-10 20 -23 33 -18 20 -23 39 -25 91 -4 78 -24 132 -52 141 -11 3 -43 8 -72 10
-29 2 -73 6 -97 9 -55 6 -104 -13 -127 -51 -10 -15 -21 -30 -25 -33 -3 -3 -7
-12 -7 -20 -8 -75 -8 -111 0 -116 4 -3 6 -10 3 -15 -9 -14 48 -89 68 -89 9 0
17 -4 17 -9 0 -9 33 -20 85 -28 93 -13 140 -24 143 -33 2 -6 11 -10 19 -10 9
0 13 -3 10 -7 -4 -3 -2 -12 4 -20 7 -7 13 -37 14 -66 4 -76 11 -97 44 -129 27
-27 38 -30 116 -35 99 -6 218 4 210 18 -4 5 0 9 7 9 18 0 44 64 53 130 4 30
10 60 13 65 4 6 7 12 7 15 2 19 64 69 85 68 3 0 47 3 99 7 93 7 144 21 148 40
1 6 10 30 19 55 37 104 -29 259 -122 285 -16 4 -36 10 -44 13 -8 3 -37 6 -65
8 -60 4 -95 13 -95 26 0 5 -4 7 -8 4 -10 -6 -42 28 -59 64 -7 14 -14 60 -17
103 -5 90 -32 143 -76 153 -3 0 -12 3 -20 7 -8 3 -46 8 -85 10 -120 8 -162 50
-159 157 2 89 20 140 55 153 16 6 29 15 29 19 0 13 132 9 170 -5 20 -6 49 -22
65 -34 28 -20 30 -25 28 -87 -1 -36 2 -66 8 -66 5 0 9 -13 9 -28 0 -39 37 -71
91 -79 74 -9 193 -9 215 0 35 15 75 117 77 194 1 82 -87 163 -176 163 -72 0
-125 13 -153 37 -16 14 -29 28 -30 31 0 4 -6 21 -13 37 -6 17 -19 50 -28 74
-9 24 -35 63 -57 86 l-41 42 -100 1 c-57 0 -109 -5 -120 -12z"/>
<path d="M2460 7110 c-14 -3 -37 -5 -52 -4 -16 2 -33 -5 -44 -17 -9 -10 -14
-19 -10 -19 4 0 0 -7 -8 -16 -9 -8 -17 -32 -17 -52 -3 -76 2 -137 12 -140 5
-2 7 -7 4 -12 -13 -21 81 -70 137 -70 33 0 117 28 132 43 22 24 46 89 46 127
0 63 -55 168 -83 157 -7 -3 -31 -2 -53 2 -21 4 -50 5 -64 1z"/>
<path d="M5872 6800 c-118 -25 -242 -120 -301 -229 -78 -148 -81 -354 -5 -502
31 -62 106 -139 162 -168 120 -61 302 -67 434 -14 37 15 38 16 38 68 l0 53
-62 -26 c-54 -23 -78 -26 -168 -27 -95 0 -110 3 -162 28 -113 55 -177 161
-186 306 -13 237 118 404 329 419 73 5 152 -10 212 -40 l37 -18 0 59 0 59 -47
17 c-56 19 -219 28 -281 15z"/>
<path d="M8771 6794 c-79 -21 -147 -62 -198 -118 -49 -55 -71 -93 -99 -176
-28 -83 -26 -283 4 -365 62 -168 193 -269 369 -282 284 -22 483 176 483 482 0
290 -175 477 -443 474 -34 0 -86 -7 -116 -15z m226 -99 c110 -33 180 -115 209
-243 19 -87 15 -220 -10 -290 -52 -144 -179 -223 -341 -210 -117 10 -221 90
-267 207 -18 45 -22 76 -23 166 0 121 14 175 67 252 76 111 225 160 365 118z"/>
<path d="M10471 6794 c-79 -21 -147 -62 -198 -118 -49 -55 -71 -93 -99 -176
-28 -83 -26 -283 4 -365 62 -168 193 -269 369 -282 284 -22 483 176 483 482 0
290 -175 477 -443 474 -34 0 -86 -7 -116 -15z m226 -99 c110 -33 180 -115 209
-243 19 -87 15 -220 -10 -290 -52 -144 -179 -223 -341 -210 -117 10 -221 90
-267 207 -18 45 -22 76 -23 166 0 121 14 175 67 252 76 111 225 160 365 118z"/>
<path d="M11581 6800 c-118 -25 -238 -111 -301 -216 -85 -141 -93 -346 -19
-500 32 -67 111 -149 177 -183 132 -67 326 -66 478 3 l54 25 0 210 0 211 -160
0 -160 0 0 -50 0 -50 105 0 105 0 0 -129 0 -129 -47 -19 c-35 -13 -75 -18
-148 -18 -89 0 -106 3 -157 28 -70 34 -130 100 -160 176 -18 46 -22 76 -23
167 0 108 1 112 38 187 42 84 90 132 173 168 94 42 249 35 361 -16 l54 -24 -3
62 -3 62 -55 19 c-64 21 -241 30 -309 16z"/>
<path d="M13560 6795 c-164 -45 -242 -193 -176 -329 33 -68 70 -97 217 -176
146 -79 190 -120 196 -187 5 -58 -19 -103 -69 -130 -71 -39 -262 -17 -341 39
l-28 20 3 -68 3 -69 55 -19 c83 -29 267 -29 333 1 77 35 108 63 133 117 67
144 -3 274 -201 373 -109 55 -173 100 -195 135 -41 67 -16 148 56 184 58 28
211 27 277 -3 l47 -22 0 60 c0 56 -2 60 -27 70 -48 19 -221 21 -283 4z"/>
<path d="M3990 6740 l0 -50 130 0 130 0 0 -410 0 -410 55 0 55 0 0 410 0 410
130 0 130 0 0 50 0 50 -315 0 -315 0 0 -50z"/>
<path d="M4840 6330 l0 -460 245 0 245 0 0 50 0 50 -190 0 -190 0 0 160 0 160
165 0 165 0 0 50 0 50 -165 0 -165 0 0 150 0 150 180 0 180 0 0 50 0 50 -235
0 -235 0 0 -460z"/>
<path d="M6460 6330 l0 -460 55 0 55 0 0 210 0 210 240 0 240 0 0 -210 0 -210
55 0 55 0 0 460 0 460 -55 0 -55 0 0 -200 0 -200 -240 0 -240 0 0 200 0 200
-55 0 -55 0 0 -460z"/>
<path d="M7460 6330 l0 -460 55 0 55 0 0 393 c1 375 2 391 18 361 9 -18 123
-194 252 -393 l235 -361 68 0 67 0 0 460 0 460 -55 0 -55 0 2 -390 c2 -215 3
-390 2 -390 0 0 -113 175 -250 390 l-249 389 -72 1 -73 0 0 -460z"/>
<path d="M9570 6330 l0 -460 240 0 240 0 0 50 0 50 -185 0 -185 0 0 410 0 410
-55 0 -55 0 0 -460z"/>
<path d="M12250 6330 l0 -460 55 0 55 0 0 460 0 460 -55 0 -55 0 0 -460z"/>
<path d="M12660 6330 l0 -460 245 0 245 0 0 50 0 50 -190 0 -190 0 0 160 0
160 165 0 165 0 0 50 0 50 -165 0 -165 0 0 150 0 150 180 0 180 0 0 50 0 50
-235 0 -235 0 0 -460z"/>
</g>
</svg>
